<?xml version="1.0" standalone="no"?>
<!DOCTYPE svg PUBLIC "-//W3C//DTD SVG 20010904//EN"
 "http://www.w3.org/TR/2001/REC-SVG-20010904/DTD/svg10.dtd">
<svg version="1.0" xmlns="http://www.w3.org/2000/svg"
 width="300.000000pt" height="300.000000pt" viewBox="0 0 300.000000 300.000000"
 preserveAspectRatio="xMidYMid meet">
<metadata>
Created by potrace 1.10, written by Peter Selinger 2001-2011
</metadata>
<g transform="translate(0.000000,300.000000) scale(0.100000,-0.100000)"
fill="#000000" stroke="none">
<path d="M1882 2767 c-6 -7 -46 -140 -89 -296 l-78 -284 -118 -1 -117 -1 0
112 c0 100 -2 113 -19 122 -10 6 -88 18 -172 27 -253 27 -724 4 -750 -37 -5
-8 -9 -183 -9 -390 0 -459 17 -381 -218 -999 -83 -218 -117 -329 -140 -462
l-17 -98 -62 0 c-53 0 -64 -3 -77 -22 -23 -32 -21 -51 3 -38 24 12 61 13 61 1
0 -5 -7 -14 -15 -21 -20 -16 -19 -60 2 -89 l16 -24 -41 6 c-46 6 -55 -8 -26
-37 14 -14 162 -16 1484 -16 1322 0 1470 2 1484 16 28 28 20 43 -20 37 l-36
-6 16 32 c18 34 14 64 -12 94 -14 16 -13 17 7 17 12 0 32 -5 43 -11 19 -10 20
-9 14 17 -4 16 -13 32 -19 36 -7 4 -108 8 -224 8 -117 0 -213 2 -213 4 0 2
-34 113 -75 247 l-75 244 0 273 0 272 151 0 c116 0 150 -3 147 -12 -3 -7 -15
-14 -28 -14 -36 -2 -50 -31 -50 -101 0 -79 19 -127 62 -153 41 -25 74 -25 114
-1 43 26 64 76 64 155 0 54 -4 70 -21 87 -12 12 -29 19 -40 16 -17 -5 -19 1
-19 42 0 26 -5 52 -12 59 -8 8 -65 12 -190 12 l-178 0 0 255 0 255 150 0 c127
0 150 -2 150 -15 0 -9 -9 -15 -24 -15 -47 0 -58 -25 -54 -117 3 -84 3 -85 42
-120 35 -32 43 -35 83 -30 77 8 113 62 113 170 0 70 -17 97 -58 97 -20 0 -22
5 -22 50 0 70 -7 72 -218 69 l-177 -3 -75 281 c-41 155 -81 288 -89 297 -11
13 -38 16 -166 16 -113 0 -155 -3 -163 -13z m336 -304 c35 -131 65 -247 68
-258 5 -20 0 -20 -241 -20 -214 0 -244 2 -239 15 3 8 32 116 65 240 33 124 62
233 65 243 5 15 19 17 113 17 l107 0 62 -237z m-1033 -93 c77 -5 157 -12 178
-16 l37 -6 0 -352 0 -353 30 -104 c16 -57 57 -176 90 -264 186 -484 229 -619
252 -793 l3 -22 -765 0 -765 0 3 22 c20 152 67 306 202 658 54 140 113 300
131 355 l33 100 4 377 3 377 42 6 c144 22 346 27 522 15z m645 -225 c34 -8 36
-12 14 -36 -14 -16 -14 -20 1 -49 l17 -32 -31 18 c-26 15 -35 16 -51 6 -26
-16 -30 -15 -30 7 0 10 -9 30 -20 44 -26 32 -25 35 6 68 l27 28 19 -24 c10
-13 32 -26 48 -30z m532 19 l27 -27 -19 -25 c-11 -13 -20 -38 -20 -53 0 -33
-6 -36 -32 -12 -15 13 -23 14 -44 4 -21 -9 -25 -9 -21 1 3 7 8 20 11 28 4 9
-2 25 -14 38 -20 22 -20 22 -1 22 11 0 33 11 48 25 15 13 30 25 32 25 3 0 17
-12 33 -26z m-884 -7 c10 -8 9 -14 -4 -28 -25 -28 -34 -23 -34 17 0 35 5 37
38 11z m1249 -32 c10 -27 -6 -30 -29 -7 l-22 22 22 0 c12 0 25 -7 29 -15z
m-1019 -286 l-3 -262 -100 1 -100 1 -12 48 c-8 31 -13 124 -13 261 l0 212 115
0 115 0 -2 -261z m446 169 c-53 -51 -99 -94 -103 -96 -3 -1 -49 41 -101 93
l-95 95 197 0 197 0 -95 -92z m646 -6 c0 -9 -8 -7 -26 7 -34 26 -55 26 -85 0
-37 -32 -36 -2 1 36 l33 34 38 -32 c21 -18 39 -38 39 -45z m-911 -63 l95 -99
-95 -99 c-51 -54 -96 -99 -99 -100 -3 0 -5 89 -5 199 0 110 2 199 5 199 3 -1
48 -46 99 -100z m416 -99 c0 -105 0 -190 -1 -190 -1 0 -44 44 -97 98 l-96 97
92 93 c50 50 94 92 97 92 3 0 5 -86 5 -190z m455 105 c0 -33 -5 -47 -18 -54
-27 -15 -42 5 -42 56 0 41 1 43 30 43 29 0 30 -2 30 -45z m-689 -64 c20 10 21
9 15 -16 -5 -19 -1 -37 14 -62 l20 -35 -30 22 c-23 16 -38 20 -61 15 -29 -7
-30 -6 -20 14 9 16 8 28 -4 51 l-16 31 31 -16 c24 -12 35 -13 51 -4z m168
-291 c0 -3 -87 -5 -194 -5 -107 0 -195 0 -195 1 0 1 44 44 97 97 l98 96 96
-92 c53 -51 97 -94 98 -97z m54 40 c8 0 20 7 27 15 20 24 30 18 30 -18 0 -21
8 -41 20 -52 11 -10 20 -22 20 -27 0 -6 -9 -21 -20 -35 -11 -14 -20 -39 -20
-54 0 -32 -11 -37 -30 -14 -9 11 -22 14 -42 9 -28 -6 -29 -5 -18 16 10 19 8
26 -14 49 -26 28 -26 28 -6 46 25 22 25 38 3 73 l-18 27 27 -17 c15 -10 34
-18 41 -18z m-482 -7 c15 4 19 0 19 -17 0 -13 9 -31 20 -41 l20 -18 -21 -23
c-16 -17 -20 -30 -15 -48 7 -27 0 -32 -23 -17 -9 6 -23 4 -38 -6 -21 -14 -23
-14 -23 0 0 9 -12 30 -26 47 l-27 31 22 22 c11 13 24 37 27 55 6 28 9 30 26
21 11 -6 29 -9 39 -6z m-281 -101 c0 -2 -9 -15 -19 -28 l-19 -24 -11 31 c-6
18 -11 40 -11 51 0 17 2 17 30 -4 17 -12 30 -24 30 -26z m1198 -14 c2 -16 18
-40 38 -57 42 -37 49 -74 8 -42 -33 26 -54 26 -87 1 -14 -11 -28 -20 -31 -20
-12 0 9 37 36 62 32 31 34 40 13 58 -20 17 -19 32 3 28 10 -2 18 -14 20 -30z
m-578 -104 c-54 -53 -100 -95 -103 -94 -2 2 -48 45 -100 96 l-96 94 198 0 198
0 -97 -96z m-440 -151 c0 -130 -2 -234 -5 -232 -2 3 -36 93 -75 200 -39 107
-77 211 -85 232 l-15 37 90 0 90 0 0 -237z m177 88 l98 -100 -99 -100 c-54
-56 -99 -101 -100 -101 -1 0 -1 90 -1 200 0 110 1 200 2 200 1 0 46 -45 100
-99z m418 -96 c0 -107 -1 -195 -1 -195 -1 0 -45 44 -98 97 l-96 98 97 97 c54
54 98 98 98 98 0 0 0 -88 0 -195z m453 98 c-3 -44 -5 -48 -28 -48 -23 0 -25 4
-28 48 -3 47 -3 47 28 47 31 0 31 0 28 -47z m-730 -65 c8 -8 18 -9 34 -1 22
10 23 8 23 -31 l0 -41 -42 0 c-35 0 -40 2 -32 17 5 10 5 27 -1 42 -10 27 -2
34 18 14z m120 -198 l103 -100 -201 0 c-110 0 -200 2 -200 4 0 3 44 48 98 100
53 53 97 96 97 96 0 0 46 -45 103 -100z m202 -69 c0 -27 3 -64 6 -82 l7 -34
-25 23 c-13 12 -36 22 -51 22 -31 0 -43 16 -27 35 9 10 9 19 0 35 -14 27 -8
35 18 21 15 -8 23 -6 38 9 29 29 34 24 34 -29z m-579 23 c8 -9 22 -14 37 -11
20 4 23 1 18 -16 -3 -12 0 -27 6 -34 15 -18 1 -31 -37 -35 -20 -2 -36 -13 -52
-36 l-22 -33 -14 28 c-8 15 -22 52 -30 81 -16 52 -16 52 5 41 17 -9 24 -7 41
10 26 25 31 26 48 5z m608 -341 c35 -115 66 -217 69 -227 4 -15 1 -18 -12 -13
-10 4 -146 7 -302 7 l-284 0 0 35 c0 48 -26 173 -56 265 -13 41 -24 90 -24
108 l0 32 273 0 273 0 63 -207z m135 -245 c23 -33 20 -38 -24 -38 -45 0 -47 2
-22 35 21 30 27 31 46 3z m-2288 -5 c21 -27 17 -33 -21 -33 -38 0 -40 2 -25
31 13 24 29 24 46 2z m1606 0 c27 -24 22 -33 -17 -33 -39 0 -40 2 -23 30 15
24 17 24 40 3z m1088 -108 l0 -35 -1415 0 -1415 0 0 35 0 35 1415 0 1415 0 0
-35z"/>
<path d="M661 1408 c-59 -58 -107 -132 -132 -203 -26 -74 -37 -208 -19 -230
10 -12 42 -15 174 -15 l162 0 21 -28 20 -27 -68 -139 c-38 -76 -69 -146 -69
-156 0 -45 129 -90 259 -90 135 0 261 42 261 87 0 13 -31 85 -69 161 l-69 137
27 33 27 32 160 0 c111 0 164 4 172 12 30 30 2 192 -51 292 -41 78 -136 176
-171 176 -20 0 -45 -24 -123 -121 l-99 -121 -60 -1 -60 -2 -102 123 c-76 90
-109 122 -125 122 -14 0 -41 -18 -66 -42z m87 -20 c7 -7 12 -16 12 -22 0 -6
-5 -5 -12 2 -7 7 -23 12 -37 12 -21 0 -23 2 -11 10 20 13 34 12 48 -2z m60
-148 c65 -78 69 -86 56 -105 -8 -11 -19 -37 -25 -57 l-10 -38 -124 0 c-143 0
-136 -6 -109 95 17 66 49 130 91 180 32 38 24 43 121 -75z m546 49 c45 -59 86
-163 86 -215 l0 -24 -125 0 -125 0 -6 28 c-4 15 -16 40 -26 55 -17 24 -18 30
-6 45 58 75 143 172 149 172 4 0 28 -27 53 -61z m-394 -129 c0 -4 -12 -15 -27
-27 l-28 -20 0 43 0 42 28 -16 c15 -9 27 -19 27 -22z m147 8 c0 -7 3 -24 8
-37 l7 -25 -30 25 c-27 21 -28 25 -14 37 9 6 19 12 22 12 4 0 7 -6 7 -12z
m-62 -52 c90 -38 67 -176 -30 -176 -47 0 -95 45 -95 88 0 42 43 91 88 101 1 1
18 -5 37 -13z m129 -85 c16 -17 15 -19 -9 -35 l-25 -16 0 35 c0 39 9 44 34 16z
m-290 -23 c8 -39 6 -41 -24 -18 -20 15 -22 20 -11 34 20 23 28 20 35 -16z m74
-106 c2 -6 -6 -16 -17 -22 -18 -9 -21 -8 -21 9 0 11 -3 28 -7 38 -7 17 -6 17
17 2 13 -9 26 -21 28 -27z m147 -2 c0 -34 -2 -35 -29 -15 -20 15 -20 15 0 30
27 20 29 19 29 -15z m11 -152 c30 -60 52 -113 49 -118 -3 -4 -38 -14 -78 -20
-55 -10 -89 -10 -147 -1 -41 6 -78 15 -82 19 -3 4 17 57 47 118 l53 110 52 0
52 0 54 -108z"/>
</g>
</svg>
